HIERARCHY
ROOT Hips
{
     OFFSET 1.88212 96.90440 -13.34250
     CHANNELS 6 Xposition Yposition Zposition Zrotation Xrotation Yrotation
     JOINT Spine
     {
          OFFSET 0.00000 11.89050 0.00000
          CHANNELS 3 Zrotation Xrotation Yrotation
          JOINT Spine1
          {
               OFFSET -0.00000 25.65740 0.12766
               CHANNELS 3 Zrotation Xrotation Yrotation
               JOINT HEad
               {
                    OFFSET 0.00000 8.73416 0.01134
                    CHANNELS 3 Zrotation Xrotation Yrotation
                    End Site
                    {
                         OFFSET -0.29000 12.77420 2.51395
                    }
               }
               JOINT LeftShoulder1
               {
                    OFFSET 8.99000 -0.36225 -0.22000
                    CHANNELS 3 Zrotation Xrotation Yrotation
                    JOINT LeftArm
                    {
                         OFFSET 10.28270 -0.00338 0.32212
                         CHANNELS 3 Zrotation Xrotation Yrotation
                         JOINT LeftForeArm
                         {
                              OFFSET 32.76690 0.09914 -1.42434
                              CHANNELS 3 Zrotation Xrotation Yrotation
                              JOINT LeftHand
                              {
                                   OFFSET 27.56430 0.08536 1.02216
                                   CHANNELS 3 Zrotation Xrotation Yrotation
                                   End Site
                                   {
                                        OFFSET 16.74430 -0.60000 1.50291
                                   }
                              }
                         }
                    }
               }
               JOINT RightShoulder
               {
                    OFFSET -8.99000 -0.36225 -0.22000
                    CHANNELS 3 Zrotation Xrotation Yrotation
                    JOINT RightArm
                    {
                         OFFSET -10.28270 -0.00338 0.32212
                         CHANNELS 3 Zrotation Xrotation Yrotation
                         JOINT RightForeArm
                         {
                              OFFSET -32.89710 0.09914 -1.42434
                              CHANNELS 3 Zrotation Xrotation Yrotation
                              JOINT RightHand
                              {
                                   OFFSET -27.49210 0.08536 1.02216
                                   CHANNELS 3 Zrotation Xrotation Yrotation
                                   End Site
                                   {
                                        OFFSET -16.63120 -0.60000 1.50291
                                   }
                              }
                         }
                    }
               }
          }
     }
     JOINT LeftUpLeg
     {
          OFFSET 8.94580 -8.66707 0.10165
          CHANNELS 3 Zrotation Xrotation Yrotation
          JOINT LeftLeg
          {
               OFFSET 0.00000 -44.42270 1.37270
               CHANNELS 3 Zrotation Xrotation Yrotation
               JOINT LeftFoot
               {
                    OFFSET -0.25355 -42.09240 -1.46059
                    CHANNELS 3 Zrotation Xrotation Yrotation
                    JOINT LeftToes
                    {
                         OFFSET -0.04000 -4.41509 8.49910
                         CHANNELS 3 Zrotation Xrotation Yrotation
                         End Site
                         {
                              OFFSET 0.08000 -0.04745 9.77979
                         }
                    }
               }
          }
     }
     JOINT RightUpLeg
     {
          OFFSET -8.94580 -8.66707 0.10165
          CHANNELS 3 Zrotation Xrotation Yrotation
          JOINT RightLeg
          {
               OFFSET 0.00000 -44.42270 1.37270
               CHANNELS 3 Zrotation Xrotation Yrotation
               JOINT RightFoot
               {
                    OFFSET 0.25355 -42.09240 -1.46059
                    CHANNELS 3 Zrotation Xrotation Yrotation
                    JOINT RightToes
                    {
                         OFFSET 0.04000 -4.41509 8.49910
                         CHANNELS 3 Zrotation Xrotation Yrotation
                         End Site
                         {
                              OFFSET -0.08000 -0.13745 9.77979
                         }
                    }
               }
          }
     }
}
MOTION
Frames: 12
Frame Time: 0.01667
44.37009 90.98516 -121.17924 3.20101 5.44465 -16.76666 -6.21211 2.71653 7.18193 0.01633 -0.00346 -0.00867 -6.74389 2.71923 15.08652 2.67941 3.88419 1.70987 -93.38756 -17.76811 -92.43737 -18.52604 31.76558 -84.00475 34.65172 -5.72805 -37.45389 15.67269 6.52769 12.46927 56.83890 0.56931 88.36228 23.72225 19.62013 83.86731 -31.92660 3.05729 17.71350 11.99417 -29.79940 13.17929 -3.88659 24.26944 2.86786 1.90233 -0.00130 0.00550 -10.96297 24.15295 18.73291 -14.72109 -3.61782 5.86305 14.52884 21.97271 -70.17599 6.32643 -0.31011 0.01714 8.60733 14.67660 15.75395 
44.03259 90.12017 -122.05397 3.34337 4.73915 -16.84011 -6.02804 3.26830 7.55323 0.01473 -0.00221 -0.00840 -7.20070 2.93140 14.80282 2.82202 3.82071 1.28421 -94.60598 -17.42015 -91.22069 -25.19541 32.15197 -82.63175 34.39671 -1.15079 -40.28331 15.91219 6.36313 11.86673 56.29301 1.93313 88.11179 25.30517 19.36865 83.27747 -30.42574 -3.82563 22.42383 12.26132 -29.92332 13.62286 -3.64894 24.66976 2.62381 0.93339 -0.00209 0.00458 -10.23823 24.47425 18.53182 -16.32051 -5.62112 2.94921 15.75448 26.45970 -69.83876 4.90429 -0.17460 0.04384 10.07817 13.51892 19.31906 
43.67182 88.99714 -123.08826 3.54875 3.82027 -16.99859 -5.77146 3.94497 7.91988 0.01445 -0.00199 -0.00734 -7.85402 3.36577 14.71418 3.04147 3.87965 1.43906 -96.20570 -16.28583 -90.27541 -29.05686 33.48865 -82.54082 31.01818 -17.53776 -48.22469 15.97058 6.33019 11.46244 55.82984 3.32056 87.91000 26.52110 19.18533 82.69106 -30.98190 2.55622 21.43892 12.57683 -30.19464 14.08873 -3.51764 25.55093 2.55609 -0.00932 -0.00307 0.00329 -9.56546 24.68172 18.23130 -18.37374 -7.86449 -0.61586 16.52449 32.26241 -67.12775 4.76405 -0.14776 0.04981 10.02057 12.19623 17.93699 
43.29586 87.60355 -124.26457 3.80242 2.71574 -17.21178 -5.44280 4.74514 8.25561 0.01338 0.00004 -0.00658 -8.68875 3.99483 14.81017 3.09337 4.07347 1.79563 -97.88790 -14.75270 -89.31684 -31.02399 36.20306 -83.17382 34.19450 -3.43775 -43.98207 15.89398 6.42978 11.21148 55.45556 4.84887 87.74611 32.19733 17.42489 81.58704 -23.06913 -14.15621 32.85530 13.55223 -31.44939 14.35339 -4.15119 28.00554 3.33380 -0.89694 -0.00457 0.00014 -8.90744 24.57361 17.78064 -20.98861 -10.39783 -4.83300 19.67410 40.11293 -64.97828 4.83083 -0.02878 0.00532 10.82705 7.91388 18.46136 
42.88554 85.90724 -125.54646 4.07006 1.45924 -17.44725 -4.77135 5.44355 8.22313 0.00797 0.00738 -0.00353 -9.93224 4.99441 15.40016 2.71186 4.65442 1.79411 -99.56422 -14.28838 -88.46831 -32.59820 37.98737 -83.41767 34.11244 -11.29828 -47.72848 15.41225 6.96537 11.25669 55.23504 6.53343 87.66856 35.42542 16.42472 80.63481 -21.75980 -2.24417 27.94789 15.06129 -33.47890 14.37488 -5.57731 31.93857 5.00653 -1.75343 -0.00528 -0.00424 -8.21870 23.97495 17.12880 -23.70143 -12.71282 -8.70795 24.62526 48.85104 -64.49180 5.14327 -0.01697 0.01330 11.88445 2.15026 18.09980 
42.42255 83.87521 -126.86917 4.33879 0.07684 -17.70826 -3.84398 6.08951 7.84310 0.00471 0.01273 -0.00023 -11.52940 6.26088 16.45960 2.10532 5.53766 1.77401 -101.33303 -14.50304 -87.83420 -34.18912 39.13125 -83.42635 34.71557 -3.74799 -46.04089 14.55922 7.85968 11.56334 55.18862 8.23955 87.66840 37.33328 15.84699 79.93401 -21.76635 -5.65237 34.14960 16.48309 -35.29549 14.42458 -7.14229 36.19861 6.82919 -2.67537 -0.00446 -0.00827 -7.50280 22.97111 16.29627 -26.61340 -14.89733 -12.27582 31.92420 57.93435 -66.24616 5.61775 -0.01585 0.02385 13.58323 -4.51590 18.26184 
41.92231 81.51567 -128.18230 4.62588 -1.40504 -18.02354 -2.76474 6.71475 7.15823 0.00168 0.01730 0.00328 -13.44232 7.68407 17.96550 1.59084 6.65725 1.84286 -103.46346 -14.84832 -87.82154 -35.87350 39.42604 -82.57602 32.97578 -8.53619 -48.07888 13.48226 9.05544 12.19689 55.23064 10.08100 87.71714 43.03456 13.81629 79.75912 -20.14057 5.48493 31.49840 17.96743 -37.12070 14.60971 -8.87547 40.97910 8.80443 -3.76531 -0.00169 -0.01367 -6.73885 21.61070 15.32957 -29.62121 -16.88039 -15.51174 40.14087 65.56210 -70.06631 5.56460 0.00560 0.00189 15.56127 -9.91038 18.72293 
41.43188 78.87442 -129.46411 5.21743 -4.65088 -19.55627 -2.62378 8.82136 7.43908 -0.00177 0.02079 0.00698 -16.00553 10.42165 20.78997 0.97322 7.92787 2.16929 -105.65073 -15.43672 -88.25394 -37.88191 38.84303 -81.59384 32.61034 -5.13308 -47.22750 12.16960 10.43228 13.16453 55.41958 11.99454 87.82653 45.94726 12.74562 79.19432 -14.87045 -10.89602 46.12179 19.20522 -37.21553 15.72188 -10.87656 46.23013 11.01417 -5.02839 0.00058 -0.01931 -5.86489 19.98011 14.29104 -32.86700 -17.96886 -16.52221 50.93624 71.91854 -77.20812 5.23331 0.00735 -0.00908 17.68192 -14.53515 19.75725 
41.00137 76.01668 -130.69392 5.71675 -7.58812 -20.97105 -2.56164 10.90476 7.63557 -0.00198 0.02149 0.00682 -18.58541 12.75607 23.50984 0.70982 9.01699 2.21819 -108.07735 -16.10417 -89.34052 -40.00068 37.37934 -79.94817 29.50279 -7.85330 -47.69109 10.92655 11.58707 14.12814 55.71547 13.96177 88.02434 47.21564 12.18543 78.24320 -16.83185 4.44307 36.84113 20.66605 -37.79082 16.84219 -13.33039 51.91468 13.63107 -6.45774 0.00257 -0.02494 -4.79703 18.09798 13.23392 -35.86380 -19.15373 -17.47032 67.27924 76.96465 -90.42871 4.78486 0.00651 -0.01162 19.73899 -18.65700 21.00042 
40.68090 73.00078 -131.87738 6.13950 -10.24342 -22.32312 -1.86353 14.06592 7.32336 0.06541 0.10048 -0.01792 -22.04426 13.56927 26.02843 -0.52764 8.84314 2.44515 -110.33999 -16.84472 -90.61223 -42.00890 35.66348 -78.09972 28.45328 -6.94334 -47.41362 8.67040 11.48577 15.50774 56.14513 15.80666 88.32310 47.73060 11.82539 77.37324 -14.50764 -3.10903 44.70641 22.37026 -38.83743 18.02904 -16.55381 57.93280 16.97831 -8.03822 0.00476 -0.02963 -3.47385 16.02210 12.20615 -38.59086 -20.42539 -18.36244 93.69994 80.15466 -114.15141 4.29717 0.00511 -0.01130 21.64406 -22.40479 22.35632 
40.50671 69.86354 -133.03326 6.47016 -12.65970 -23.65488 -0.71018 18.15906 6.49014 0.05576 0.09788 -0.01769 -25.92169 13.18277 28.21147 -2.11942 7.69113 2.73643 -112.60619 -17.84528 -92.28226 -44.05560 32.94975 -76.07078 25.23197 -10.07669 -46.92007 5.92638 10.39358 17.08054 56.60405 17.61821 88.79453 47.81305 11.59688 76.33887 -15.35156 5.46729 39.56104 24.32154 -40.29224 19.31013 -21.10211 64.07787 21.63817 -9.75161 0.00709 -0.03204 -1.85028 13.85045 11.24536 -41.03963 -21.80053 -19.19959 127.74160 80.48200 -145.86346 3.80157 0.00346 -0.01034 23.37721 -25.84682 23.69193 
40.47025 66.61646 -134.15292 6.69375 -14.86661 -24.98967 0.26920 21.55857 5.29983 -0.01258 0.00605 0.01243 -29.49772 13.02750 30.65939 -3.39906 7.10825 3.10941 -114.71758 -18.85929 -94.00143 -45.83554 30.30730 -73.83063 22.95261 -10.33006 -47.41928 3.58297 9.84598 18.67966 57.04570 19.19826 89.32800 47.80106 11.38160 75.42385 -13.58960 0.81502 44.28161 26.50717 -42.05791 20.69802 -28.00566 70.03788 28.67072 -11.59061 0.00925 -0.03153 0.07478 11.72209 10.37145 -43.23013 -23.31281 -19.98826 154.15508 78.06914 -170.27365 3.31420 0.00167 -0.00946 24.97304 -29.09671 25.01584 
